<svg width="32" height="32" viewBox="0 0 32 32" fill="none" xmlns="http://www.w3.org/2000/svg">
<path d="M16.0027 28.0547C12.7227 28.0547 12.336 28.0374 11.056 27.9814C10.0578 27.9486 9.07257 27.7456 8.14266 27.3814C6.53374 26.7552 5.26151 25.4825 4.63599 23.8734C4.28573 22.9401 4.09681 21.954 4.07732 20.9574C4.00266 19.68 4.00266 19.2614 4.00266 16.0067C4.00266 12.7174 4.01999 12.3334 4.07732 11.06C4.09724 10.0647 4.28615 9.08006 4.63599 8.14805C5.26083 6.53675 6.53512 5.26294 8.14666 4.63871C9.07818 4.28698 10.0631 4.09757 11.0587 4.07871C12.332 4.00671 12.7507 4.00671 16.0027 4.00671C19.3093 4.00671 19.6893 4.02405 20.9493 4.07871C21.9474 4.09774 22.935 4.28713 23.8693 4.63871C25.4804 5.26365 26.7544 6.53721 27.38 8.14805C27.7362 9.09364 27.9261 10.0937 27.9413 11.104C28.016 12.3814 28.016 12.7987 28.016 16.052C28.016 19.3054 27.9973 19.732 27.9413 20.9947C27.9215 21.9923 27.7321 22.9793 27.3813 23.9134C26.7542 25.5237 25.4801 26.7968 23.8693 27.4227C22.9363 27.7723 21.9508 27.9612 20.9547 27.9814C19.6813 28.0547 19.264 28.0547 16.0027 28.0547ZM15.9573 6.11738C12.696 6.11738 12.3573 6.13338 11.084 6.19071C10.324 6.20078 9.57129 6.34103 8.85865 6.60538C7.80633 7.00806 6.97362 7.83737 6.56666 8.88805C6.30027 9.60844 6.16 10.3694 6.15199 11.1374C6.08132 12.4294 6.08132 12.768 6.08132 16.0067C6.08132 19.2067 6.09332 19.5947 6.15199 20.8787C6.16392 21.639 6.30412 22.3918 6.56666 23.1054C6.97422 24.1554 7.80678 24.984 8.85865 25.3867C9.57081 25.6528 10.3238 25.7931 11.084 25.8014C12.3747 25.876 12.7147 25.876 15.9573 25.876C19.228 25.876 19.5667 25.86 20.8293 25.8014C21.5899 25.7921 22.3431 25.6518 23.056 25.3867C24.1019 24.9806 24.9292 24.1538 25.336 23.108C25.6019 22.387 25.7421 21.6258 25.7507 20.8574H25.7653C25.8227 19.5827 25.8227 19.2427 25.8227 15.9854C25.8227 12.728 25.808 12.3854 25.7507 11.112C25.7387 10.3526 25.5985 9.60073 25.336 8.88805C24.9302 7.84081 24.1028 7.01244 23.056 6.60538C22.3433 6.3397 21.5899 6.19941 20.8293 6.19071C19.54 6.11738 19.2027 6.11738 15.9573 6.11738ZM16.0027 22.1654C13.5093 22.167 11.2605 20.6664 10.3051 18.3633C9.34973 16.0603 9.87586 13.4085 11.6382 11.6447C13.4005 9.88084 16.0518 9.35241 18.3557 10.3058C20.6595 11.2592 22.1621 13.5067 22.1627 16C22.159 19.4015 19.4041 22.1588 16.0027 22.1654ZM16.0027 11.9974C13.7935 11.9974 12.0027 13.7882 12.0027 15.9974C12.0027 18.2065 13.7935 19.9974 16.0027 19.9974C18.2118 19.9974 20.0027 18.2065 20.0027 15.9974C19.9975 13.7904 18.2097 12.0025 16.0027 11.9974ZM22.4027 11.0467C21.6099 11.0438 20.9692 10.3995 20.9707 9.60672C20.9721 8.81395 21.6152 8.17206 22.408 8.17206C23.2008 8.17206 23.8438 8.81394 23.8453 9.60671C23.8457 9.9892 23.6937 10.3561 23.423 10.6263C23.1523 10.8965 22.7851 11.0478 22.4027 11.0467Z" fill="#282828"/>
</svg>
