<svg width="32" height="32" viewBox="0 0 32 32" fill="none" xmlns="http://www.w3.org/2000/svg">
<path d="M26.66 8.91736C27.8552 8.20281 28.7496 7.07767 29.176 5.75203C28.0529 6.41843 26.824 6.88786 25.5427 7.14003C23.7661 5.26073 20.9514 4.80339 18.6712 6.02357C16.3911 7.24374 15.21 9.83934 15.788 12.36C11.1875 12.1291 6.90129 9.95591 3.99601 6.38136C2.47979 8.99659 3.25461 12.3397 5.76667 14.0214C4.85828 13.9922 3.97004 13.7462 3.17601 13.304C3.17601 13.328 3.17601 13.352 3.17601 13.376C3.17653 16.1002 5.0965 18.4468 7.76667 18.9867C6.92409 19.2159 6.04028 19.2497 5.18267 19.0854C5.9336 21.4151 8.08074 23.0111 10.528 23.0587C8.50111 24.6495 5.99797 25.5122 3.42134 25.508C2.96463 25.5087 2.50829 25.4824 2.05467 25.4294C4.67119 27.1107 7.7165 28.0032 10.8267 28C15.1537 28.0297 19.312 26.3239 22.3716 23.264C25.4312 20.2042 27.1367 16.0457 27.1067 11.7187C27.1067 11.4707 27.1009 11.224 27.0893 10.9787C28.2099 10.1688 29.1771 9.16556 29.9453 8.01603C28.9014 8.47878 27.794 8.78259 26.66 8.91736Z" fill="#282828"/>
</svg>
